<svg xmlns="http://www.w3.org/2000/svg" xmlns:xlink="http://www.w3.org/1999/xlink" id="Layer_1" x="0px" y="0px" viewBox="0 0 810 234.3" style="enable-background:new 0 0 810 234.3;" xml:space="preserve"> <style type="text/css"> .st0{fill-rule:evenodd;clip-rule:evenodd;fill:#168AFF;} </style> <g> <g> <g> <g> <g> <path class="st0" d="M146.1,97c0,0,0,0,0.1,0c5.4,0,9.7-4.3,9.7-9.7c0-2.3-0.8-4.4-2.1-6c-0.2-0.5-0.4-1-0.7-1.5 c-10-19.3-17.6-34-19.4-37.1c-6-10.4-2.4-23.7,8-29.7c10.4-6,23.7-2.4,29.7,8c3.1,5.4,22.8,43.8,41.9,81.2 c18,35.1,35.5,69.3,38.4,74.3c6,10.4,2.4,23.7-8,29.7c-10.4,6-23.7,2.4-29.7-8c-2.3-4-10.9-20.9-25.4-49.2 c-2.2-4.5-5.2-8.4-14.3-8.4c0,0-12.2,0-29,0c-8.2,0-12.5,1.1-15.4,6.2c-12.1,23-32.7,60-36.5,66.6c-6,10.4-19.3,14-29.7,8 s-14-19.3-8-29.7c3-5.2,16.3-28.6,24.2-43.9c0.9-6.6-5.3-7.1-6.8-7.1c-12.5,0-38.3,0-41.3,0c-12,0-21.8-9.7-21.8-21.8 s9.7-21.8,21.8-21.8c11.3,0,96.6,0,105.1,0C138.2,97.1,146.1,97,146.1,97z"></path> </g> </g> <g> <g> <g> <path d="M304.1,19h-35.3v-9h80.9v9h-35.3v81.7h-10.3V19z"></path> <path d="M375.2,60.4v40.2H365V10h41.6c17.9,0,30.5,8,30.5,24.2c0,10.7-5.1,18.8-16.8,21.7c6.6,1.7,14.4,6.5,14.4,22.3V82 c0,7.2,0,15,1,18.7h-10.4c-1.3-3.9-1-11.3-1-18.3v-3c0-14.6-5.7-18.9-22.3-18.9H375.2z M375.2,51.6h28.6 c15.1,0,22.7-5.3,22.7-17c0-10.7-7.6-15.9-22.2-15.9h-29.2V51.6z"></path> <path d="M526.1,57.3h-55.4v34.4h61l-1.5,8.9h-69.7V10H529v8.9h-58.3v29.5h55.4V57.3z"></path> <path d="M551,100.6V10h12.3c19,25.4,53.5,69.2,58.4,78.1h0.3c-0.8-12.4-0.7-26-0.7-40.7V10h9.7v90.6h-11.7 c-14.9-19.4-52.3-69.4-59.1-80H560c0.7,11.8,0.7,24.6,0.7,40.7v39.3H551z"></path> <path d="M658.2,10h36.2c28.9,0,46.1,18.9,46.1,43.9c0,29.1-20.2,46.8-46.3,46.8h-36V10z M668.4,91.9h23.3 c25.8,0,37.9-16.5,37.9-37.6c0-22.2-14.9-35.4-36.7-35.4h-24.5V91.9z"></path> </g> <g> <path d="M298.8,202.5l-5.1,17.1h-25l27.7-87.7h33.2l28.8,87.7h-26.8l-5.3-17.1H298.8z M321.8,183.5c-4.1-13.8-7.5-26-9.5-34.6 H312c-2,9.4-5.4,22-8.9,34.6H321.8z"></path> <path d="M367.7,131.9h40.6c19.8,0,33.1,11,33.1,28.1c0,19.7-15.1,28.8-33.7,28.8h-14.7v30.8h-25.4V131.9z M393.1,170.7h10.5 c7.3,0,12.4-3,12.4-10.3c0-7.5-5.2-10.4-12.4-10.4h-10.5V170.7z"></path> <path d="M453.6,131.9h40.6c19.8,0,33.1,11,33.1,28.1c0,19.7-15.1,28.8-33.7,28.8H479v30.8h-25.4V131.9z M479,170.7h10.5 c7.3,0,12.4-3,12.4-10.3c0-7.5-5.2-10.4-12.4-10.4H479V170.7z"></path> <path d="M604.2,184.1h-39.9v16.4h44.6l-2.9,19h-66.4v-87.7h66.3v19h-41.6V165h39.9V184.1z"></path> <path d="M620.5,219.6v-87.7h30.7c9.2,19.7,22.6,46.4,26.3,57.2h0.4c-1-9.1-1.2-24.6-1.2-38.6v-18.6h23.4v87.7h-29.3 c-7.4-15.9-23.3-48.8-27.4-60.3h-0.3c0.8,8.2,0.9,25.2,0.9,40.6v19.7H620.5z"></path> <path d="M718.3,131.9h37.7c27.9,0,44.1,17.7,44.1,42.9c0,25.3-15.8,44.8-44.5,44.8h-37.3V131.9z M744,201h9.8 c13.9,0,19.7-9.8,19.7-26.2c0-14.5-5.3-24.3-19.3-24.3H744V201z"></path> </g> </g> </g> </g> </g> </g> </svg>